<svg width="15" height="11" viewBox="0 0 15 11" fill="none" xmlns="http://www.w3.org/2000/svg">
<path fill-rule="evenodd" clip-rule="evenodd" d="M9.10957 0.250761C10.1055 0.420093 11.0749 0.715856 11.9935 1.13064C12.0012 1.13416 12.0073 1.14023 12.0109 1.14779C13.6109 3.46292 14.4012 6.0748 14.1056 9.08142C14.105 9.08776 14.1031 9.09391 14.0999 9.09945C14.0967 9.10499 14.0923 9.1098 14.0871 9.11354C13.0168 9.894 11.8189 10.489 10.5452 10.873C10.5361 10.8758 10.5265 10.8756 10.5175 10.8727C10.5086 10.8697 10.5008 10.864 10.4953 10.8564C10.2259 10.4885 9.98423 10.1016 9.77229 9.69886C9.76934 9.69329 9.76762 9.68717 9.76725 9.6809C9.76687 9.67463 9.76786 9.66836 9.77013 9.66249C9.77241 9.65662 9.77592 9.6513 9.78045 9.64687C9.78497 9.64244 9.7904 9.639 9.79637 9.63679C10.1795 9.49536 10.5497 9.32233 10.9032 9.11953C10.9096 9.11577 10.915 9.11051 10.9188 9.10423C10.9226 9.09795 10.9248 9.09084 10.9252 9.08352C10.9256 9.0762 10.9242 9.06891 10.921 9.06227C10.9178 9.05564 10.9131 9.04987 10.9071 9.04548C10.831 8.99076 10.7566 8.93305 10.6857 8.8756C10.6793 8.87045 10.6715 8.86721 10.6633 8.86624C10.6551 8.86528 10.6467 8.86664 10.6392 8.87016C8.34805 9.91175 5.83771 9.91175 3.51913 8.87016C3.51171 8.86688 3.5035 8.8657 3.49543 8.86676C3.48737 8.86782 3.47976 8.87107 3.47347 8.87615C3.40263 8.93386 3.3282 8.99103 3.25404 9.04548C3.2481 9.04991 3.24337 9.05572 3.24025 9.06238C3.23713 9.06904 3.23573 9.07635 3.23617 9.08367C3.23661 9.09099 3.23887 9.09809 3.24276 9.10434C3.24665 9.1106 3.25204 9.11581 3.25847 9.11953C3.6124 9.32039 3.98196 9.49335 4.36366 9.63679C4.3696 9.63893 4.37501 9.64227 4.37954 9.64662C4.38406 9.65096 4.38761 9.65619 4.38993 9.66198C4.39226 9.66777 4.39332 9.67397 4.39303 9.68018C4.39275 9.6864 4.39113 9.69248 4.38829 9.69804C4.17983 10.103 3.93781 10.4903 3.66468 10.8561C3.65903 10.8635 3.65124 10.869 3.64233 10.8719C3.63343 10.8747 3.62385 10.8749 3.61487 10.8722C2.34283 10.4871 1.14654 9.89213 0.0770936 9.11272C0.071934 9.10878 0.0676338 9.10386 0.0644487 9.09824C0.0612636 9.09263 0.0592584 9.08645 0.0585535 9.08006C-0.188275 6.47989 0.31479 3.84651 2.15134 1.1467C2.15585 1.13953 2.16252 1.13391 2.17043 1.13064C3.08851 0.715598 4.05758 0.419822 5.05323 0.250761C5.06228 0.249305 5.07156 0.250581 5.07986 0.25442C5.08816 0.258259 5.09508 0.264482 5.09972 0.272268C5.23476 0.507417 5.35651 0.749716 5.46442 0.998061C6.53791 0.837665 7.62987 0.837665 8.70335 0.998061C8.81078 0.750332 8.93084 0.508093 9.06308 0.272268C9.06753 0.264316 9.07442 0.257952 9.08278 0.254089C9.09113 0.250226 9.1005 0.249061 9.10957 0.250761ZM3.4613 6.09222C3.4613 6.86647 4.03603 7.49698 4.73418 7.49698C5.44339 7.49698 6.00761 6.86647 6.00706 6.09222C6.01868 5.32341 5.44893 4.68746 4.73418 4.68746C4.02524 4.68746 3.4613 5.31797 3.4613 6.09222ZM8.16902 6.09222C8.16902 6.86647 8.74375 7.49698 9.4419 7.49698C10.1566 7.49698 10.7151 6.86647 10.7148 6.09222C10.7264 5.32341 10.1566 4.68746 9.4419 4.68746C8.73296 4.68746 8.16902 5.31797 8.16902 6.09222Z" fill="#A0A0B6"/>
</svg>
