<svg width="14" height="12" viewBox="0 0 14 12" fill="none" xmlns="http://www.w3.org/2000/svg">
<path fill-rule="evenodd" clip-rule="evenodd" d="M12.1299 1.9267C12.7005 1.85947 13.2445 1.71058 13.75 1.4895C13.3719 2.04626 12.8934 2.53528 12.3417 2.92781C12.3476 3.04647 12.3499 3.16643 12.3499 3.2869C12.3499 6.95614 9.51254 11.1875 4.32409 11.1875C2.73104 11.1875 1.24844 10.7274 0 9.93958C0.220459 9.96575 0.444984 9.97884 0.673234 9.97884C1.99501 9.97884 3.21131 9.53448 4.17651 8.79009C2.94233 8.76753 1.90014 7.96448 1.54126 6.86139C1.71359 6.89388 1.89051 6.91147 2.07247 6.91147C2.32954 6.91147 2.57887 6.87718 2.81537 6.81402C1.52568 6.5582 0.552692 5.43622 0.552692 4.0904V4.05566C0.933568 4.26365 1.36801 4.38863 1.83093 4.40307C1.07336 3.90502 0.576067 3.05505 0.576067 2.09183C0.576067 1.58289 0.714942 1.10605 0.95786 0.695926C2.34924 2.37602 4.42767 3.48181 6.77233 3.59731C6.72421 3.39383 6.699 3.18177 6.699 2.96436C6.699 1.4309 7.96211 0.1875 9.51987 0.1875C10.3306 0.1875 11.0643 0.524985 11.579 1.06454C12.2211 0.939565 12.8256 0.709011 13.37 0.390532C13.1597 1.03883 12.7124 1.58289 12.1299 1.9267Z" fill="#A0A0B6"/>
</svg>
