<svg width="32" height="32" viewBox="0 0 32 32" fill="none" xmlns="http://www.w3.org/2000/svg">
<path fill-rule="evenodd" clip-rule="evenodd" d="M32 16C32 24.8366 24.8366 32 16 32C7.16344 32 0 24.8366 0 16C0 7.16344 7.16344 0 16 0C24.8366 0 32 7.16344 32 16ZM24.6435 11.5297C25.4734 11.432 26.2647 11.2154 27 10.8938C26.45 11.7036 25.7541 12.415 24.9515 12.9859C24.9602 13.1585 24.9635 13.333 24.9635 13.5082C24.9635 18.8453 20.8364 25 13.2896 25C10.9724 25 8.81592 24.3307 7 23.1849C7.32067 23.2229 7.64725 23.2419 7.97925 23.2419C9.90183 23.2419 11.671 22.5956 13.0749 21.5129C11.2797 21.48 9.76383 20.312 9.24183 18.7075C9.4925 18.7547 9.74983 18.7803 10.0145 18.7803C10.3884 18.7803 10.7511 18.7304 11.0951 18.6386C9.21917 18.2665 7.80392 16.6345 7.80392 14.6769V14.6264C8.35792 14.9289 8.98983 15.1107 9.66317 15.1317C8.56125 14.4073 7.83792 13.171 7.83792 11.7699C7.83792 11.0297 8.03992 10.3361 8.39325 9.73953C10.4171 12.1833 13.4403 13.7917 16.8507 13.9597C16.7807 13.6638 16.744 13.3553 16.744 13.0391C16.744 10.8086 18.5813 9 20.8471 9C22.0263 9 23.0936 9.49089 23.8423 10.2757C24.7762 10.0939 25.6554 9.75856 26.4473 9.29532C26.1414 10.2383 25.4907 11.0297 24.6435 11.5297Z" fill="#A0A0B6"/>
</svg>
