<svg width="27" height="27" viewBox="0 0 27 27" fill="none" xmlns="http://www.w3.org/2000/svg">
<path fill-rule="evenodd" clip-rule="evenodd" d="M27 13.5C27 20.9558 20.9558 27 13.5 27C6.04416 27 0 20.9558 0 13.5C0 6.04416 6.04416 0 13.5 0C20.9558 0 27 6.04416 27 13.5ZM19.1757 10.213C21.1292 10.213 22.7128 11.7966 22.7128 13.75C22.7128 15.7035 21.1292 17.287 19.1757 17.287H15.1943C13.2408 17.287 11.6572 15.7035 11.6572 13.75C11.6572 13.3358 11.993 13 12.4072 13C12.8214 13 13.1572 13.3358 13.1572 13.75C13.1572 14.875 14.0692 15.787 15.1943 15.787H19.1757C20.3008 15.787 21.2128 14.875 21.2128 13.75C21.2128 12.625 20.3008 11.713 19.1757 11.713H17.185C16.7708 11.713 16.435 11.3772 16.435 10.963C16.435 10.5488 16.7708 10.213 17.185 10.213H19.1757ZM5.28721 13.75C5.28721 15.7034 6.87079 17.287 8.82425 17.287H10.815C11.2292 17.287 11.565 16.9512 11.565 16.537C11.565 16.1228 11.2292 15.787 10.815 15.787H8.82425C7.69922 15.787 6.78721 14.875 6.78721 13.75C6.78721 12.6249 7.69922 11.7129 8.82425 11.7129H12.8057C13.9308 11.7129 14.8428 12.6249 14.8428 13.75C14.8428 14.1642 15.1786 14.5 15.5928 14.5C16.007 14.5 16.3428 14.1642 16.3428 13.75C16.3428 11.7965 14.7592 10.2129 12.8057 10.2129H8.82425C6.8708 10.2129 5.28721 11.7965 5.28721 13.75Z" fill="#A0A0B6"/>
</svg>
